<svg width="49" height="36" viewBox="0 0 49 36" fill="none" xmlns="http://www.w3.org/2000/svg">
<path d="M10.9641 14.3567C10.4278 14.3567 9.91318 14.4385 9.40095 14.513C9.56689 13.9551 9.73763 13.3876 10.0118 12.8778C10.2859 12.1371 10.714 11.495 11.1396 10.8481C11.4955 10.1483 12.1232 9.67456 12.5849 9.07576C13.0683 8.49379 13.7272 8.10662 14.2491 7.62325C14.7613 7.11824 15.4322 6.86574 15.9661 6.50982C16.524 6.18998 17.0098 5.83648 17.5292 5.66814L18.8254 5.13427L19.9653 4.66052L18.799 0L17.3633 0.346292C16.904 0.461723 16.3436 0.596392 15.7064 0.757515C15.0547 0.877755 14.3597 1.20722 13.5853 1.50782C12.8206 1.8493 11.9356 2.08016 11.1132 2.62846C10.2859 3.15271 9.33122 3.59038 8.48953 4.29259C7.6743 5.01644 6.69073 5.64409 5.96448 6.56514C5.17089 7.42606 4.38692 8.33027 3.77851 9.35953C3.0739 10.3407 2.59534 11.418 2.09033 12.4834C1.63341 13.5487 1.26548 14.6381 0.964876 15.6962C0.394936 17.8172 0.140026 19.8325 0.0414283 21.5567C-0.0403353 23.2834 0.00776093 24.7191 0.108763 25.7579C0.144835 26.2485 0.21217 26.7247 0.260266 27.0541L0.320386 27.4581L0.382911 27.4437C0.810634 29.4417 1.79527 31.2778 3.22291 32.7395C4.65055 34.2013 6.46286 35.229 8.45019 35.7038C10.4375 36.1786 12.5187 36.0811 14.4529 35.4225C16.3871 34.7639 18.0953 33.5712 19.38 31.9823C20.6646 30.3934 21.4732 28.4733 21.7122 26.444C21.9512 24.4148 21.6107 22.3593 20.7303 20.5155C19.8499 18.6716 18.4655 17.1147 16.7372 16.0248C15.0089 14.9349 13.0073 14.3566 10.9641 14.3567ZM37.417 14.3567C36.8807 14.3567 36.3661 14.4385 35.8539 14.513C36.0198 13.9551 36.1906 13.3876 36.4647 12.8778C36.7389 12.1371 37.1669 11.495 37.5926 10.8481C37.9485 10.1483 38.5761 9.67456 39.0378 9.07576C39.5212 8.49379 40.1801 8.10662 40.702 7.62325C41.2142 7.11824 41.8851 6.86574 42.419 6.50982C42.9769 6.18998 43.4627 5.83648 43.9821 5.66814L45.2783 5.13427L46.4182 4.66052L45.2519 0L43.8162 0.346292C43.3569 0.461723 42.7966 0.596392 42.1593 0.757515C41.5076 0.877755 40.8126 1.20722 40.0382 1.50782C39.2759 1.8517 38.3886 2.08016 37.5661 2.63086C36.7388 3.15511 35.7841 3.59279 34.9425 4.29499C34.1272 5.01884 33.1437 5.6465 32.4174 6.56514C31.6238 7.42606 30.8398 8.33027 30.2314 9.35953C29.5268 10.3407 29.0483 11.418 28.5433 12.4834C28.0863 13.5487 27.7184 14.6381 27.4178 15.6962C26.8479 17.8172 26.593 19.8325 26.4944 21.5567C26.4126 23.2834 26.4607 24.7191 26.5617 25.7579C26.5978 26.2485 26.6651 26.7247 26.7132 27.0541L26.7733 27.4581L26.8358 27.4437C27.2636 29.4417 28.2482 31.2778 29.6758 32.7395C31.1035 34.2013 32.9158 35.229 34.9031 35.7038C36.8904 36.1786 38.9716 36.0811 40.9058 35.4225C42.84 34.7639 44.5482 33.5712 45.8329 31.9823C47.1176 30.3934 47.9261 28.4733 48.1651 26.444C48.4041 24.4148 48.0637 22.3593 47.1833 20.5155C46.3029 18.6716 44.9184 17.1147 43.1901 16.0248C41.4618 14.9349 39.4603 14.3566 37.417 14.3567Z" fill="#E5E5E5"/>
</svg>
