<svg width="22" height="22" viewBox="0 0 22 22" fill="none" xmlns="http://www.w3.org/2000/svg">
<path d="M4.30929 0C1.93952 0 0 1.93947 0 4.30929V17.6818C0 20.0515 1.93947 21.9904 4.30929 21.9904H17.6818C20.0516 21.9904 21.9904 20.0516 21.9904 17.6818V4.30929C21.9904 1.93952 20.0516 0 17.6818 0H4.30929ZM5.39314 3.62885C6.5294 3.62885 7.22928 4.37478 7.25088 5.3553C7.25088 6.31417 6.52935 7.08107 5.37116 7.08107H5.34984C4.23522 7.08107 3.51478 6.31421 3.51478 5.3553C3.51478 4.37481 4.25702 3.62885 5.39312 3.62885H5.39314ZM15.1849 8.21167C17.3701 8.21167 19.0083 9.63995 19.0083 12.7093V18.4391H15.6873V13.0934C15.6873 11.7501 15.2067 10.8336 14.0048 10.8336C13.0873 10.8336 12.5405 11.4513 12.3004 12.0481C12.2126 12.2616 12.1911 12.5597 12.1911 12.8584V18.4391H8.87013C8.87013 18.4391 8.91371 9.38365 8.87013 8.44601H12.1918V9.86114C12.6331 9.18024 13.4225 8.21165 15.1849 8.21165V8.21167ZM3.71067 8.44674H7.03163V18.4392H3.71067V8.44674Z" fill="#181930"/>
</svg>
